HIERARCHY
ROOT Hips
{
	OFFSET -3.958830 18.904000 13.208200
	CHANNELS 6 Xposition Yposition Zposition Zrotation Yrotation Xrotation 
	JOINT LHipJoint
	{
		OFFSET 0.000000 0.000000 0.000000
		CHANNELS 3 Zrotation Yrotation Xrotation
		JOINT LeftUpLeg
		{
			OFFSET 1.800000 -1.400000 0.085000
			CHANNELS 3 Zrotation Yrotation Xrotation
			JOINT LeftLeg
			{
				OFFSET 2.215000 -6.000000 0.000000
				CHANNELS 3 Zrotation Yrotation Xrotation
				JOINT LeftFoot
				{
					OFFSET 2.500000 -6.900000 0.000000
					CHANNELS 3 Zrotation Yrotation Xrotation
					JOINT LeftToeBase
					{
						OFFSET 0.200000 -0.500000 1.950000
						CHANNELS 3 Zrotation Yrotation Xrotation
						End Site
						{
							OFFSET 0.000000 0.000000 0.000000
						}
					}
				}
			}
		}
	}
	JOINT RHipJoint
	{
		OFFSET 0.000000 0.000000 0.000000
		CHANNELS 3 Zrotation Yrotation Xrotation
		JOINT RightUpLeg
		{
			OFFSET -1.800000 -1.400000 0.085000
			CHANNELS 3 Zrotation Yrotation Xrotation
			JOINT RightLeg
			{
				OFFSET -2.215000 -6.000000 0.000000
				CHANNELS 3 Zrotation Yrotation Xrotation
				JOINT RightFoot
				{
					OFFSET -2.500000 -6.900000 0.000000
					CHANNELS 3 Zrotation Yrotation Xrotation
					JOINT RightToeBase
					{
						OFFSET -0.200000 -0.500000 1.950000
						CHANNELS 3 Zrotation Yrotation Xrotation
						End Site
						{
							OFFSET 0.000000 0.000000 0.000000
						}
					}
				}
			}
		}
	}
	JOINT LowerBack
	{
		OFFSET 0.000000 0.000000 0.000000
		CHANNELS 3 Zrotation Yrotation Xrotation
		JOINT Spine
		{
			OFFSET -0.087000 1.940000 -0.288900
			CHANNELS 3 Zrotation Yrotation Xrotation
			JOINT Spine1
			{
				OFFSET 0.000000 1.950000 0.060000
				CHANNELS 3 Zrotation Yrotation Xrotation
				JOINT Neck
				{
					OFFSET 0.000000 0.000000 0.000000
					CHANNELS 3 Zrotation Yrotation Xrotation
					JOINT Neck1
					{
						OFFSET 0.000000 1.600000 0.340000
						CHANNELS 3 Zrotation Yrotation Xrotation
						JOINT Head
						{
							OFFSET 0.000000 1.667000 -0.240000
							CHANNELS 3 Zrotation Yrotation Xrotation
							End Site
							{
								OFFSET 0.000000 0.000000 0.000000
							}
						}
					}
				}
				JOINT LeftShoulder
				{
					OFFSET 0.000000 0.000000 0.000000
					CHANNELS 3 Zrotation Yrotation Xrotation
					JOINT LeftArm
					{
						OFFSET 2.700000 1.550000 -0.730000
						CHANNELS 3 Zrotation Yrotation Xrotation
						JOINT LeftForeArm
						{
							OFFSET 5.450000 0.000000 0.000000
							CHANNELS 3 Zrotation Yrotation Xrotation
							JOINT LeftHand
							{
								OFFSET 3.450000 0.000000 0.000000
								CHANNELS 3 Zrotation Yrotation Xrotation
								JOINT LeftHandIndex1
								{
									OFFSET 0.750000 0.000000 0.000000
									CHANNELS 3 Zrotation Yrotation Xrotation
									End Site
									{
										OFFSET 0.000000 0.000000 0.000000
									}
								}
							}
						}
					}
				}
				JOINT RightShoulder
				{
					OFFSET 0.000000 0.000000 0.000000
					CHANNELS 3 Zrotation Yrotation Xrotation
					JOINT RightArm
					{
						OFFSET -2.700000 1.550000 -0.730000
						CHANNELS 3 Zrotation Yrotation Xrotation
						JOINT RightForeArm
						{
							OFFSET -5.450000 0.000000 0.000000
							CHANNELS 3 Zrotation Yrotation Xrotation
							JOINT RightHand
							{
								OFFSET -3.450000 0.000000 0.000000
								CHANNELS 3 Zrotation Yrotation Xrotation
								JOINT RightHandIndex1
								{
									OFFSET -0.750000 0.000000 0.000000
									CHANNELS 3 Zrotation Yrotation Xrotation
									End Site
									{
										OFFSET 0.000000 0.000000 0.000000
									}
								}
							}
						}
					}
				}
			}
		}
	}
}
MOTION
Frames: 10
Frame Time: 0.016667
0.079120 16.744710 -2.132000 -4.557771 -4.664213 -2.693366 -14.591377 13.160712 3.667748 6.344988 -3.350906 -22.035226 -11.556023 8.746972 24.276897 0.692021 4.394007 2.792899 0.543700 0.396410 0.613760 18.525704 -11.750339 3.043991 0.642765 0.195690 -7.082397 4.078698 -5.615016 20.930112 -0.605261 -3.696967 3.053042 -0.177550 -0.655390 0.247160 -4.619612 0.098891 -8.167794 32.593459 -1.526750 16.515644 -24.410168 6.631802 -10.335925 12.821450 5.012756 -13.232449 10.605563 -16.665797 53.161417 -10.172060 -10.159950 -6.987220 -29.490261 3.094428 -0.100278 -43.677535 11.736073 -9.345947 -9.129693 -14.482334 0.309432 -2.724302 3.382384 0.310840 -0.503520 0.634020 0.221460 0.124629 2.138351 14.857445 29.002453 -21.014531 -10.698919 -112.385222 48.280839 -67.592318 2.869021 -1.474551 0.465970 -0.423010 -0.618040 0.104180 
0.073610 16.739380 -2.131680 -4.644833 -4.712954 -2.628014 -14.616597 13.181036 3.697765 6.588937 -3.358888 -22.373831 -11.666291 8.867412 24.523600 0.696100 4.462520 2.766758 0.537750 0.382220 0.617760 18.497835 -11.712509 3.048758 0.693254 0.225435 -7.083027 4.295734 -5.666721 20.901787 -0.602429 -3.697988 3.055608 -0.185610 -0.657270 0.249520 -4.543748 0.013665 -8.200434 32.071948 -1.445368 16.895013 -23.714323 6.704965 -11.018487 12.789074 5.135344 -13.097188 11.127946 -16.873842 52.728940 -10.676030 -9.820810 -7.158470 -29.791277 3.762954 -0.371077 -43.695154 12.024037 -9.411614 -9.222157 -14.450041 0.316777 -2.727277 3.376996 0.316040 -0.501690 0.630960 0.215760 0.428755 1.492779 14.864561 29.793725 -20.840150 -10.485948 -115.107470 48.142438 -71.295772 2.886852 -1.505969 0.461710 -0.426940 -0.613600 0.096210 
0.061110 16.726770 -2.129660 -4.716118 -4.751671 -2.465963 -14.666471 13.202657 3.755070 6.940029 -3.399294 -23.032764 -11.834978 9.092989 25.060124 0.709427 4.588073 2.715381 0.532100 0.361910 0.633060 18.444277 -11.654323 3.054180 0.700339 0.287015 -7.131250 4.754275 -5.777719 20.852031 -0.597633 -3.707332 3.051955 -0.197560 -0.669240 0.259720 -4.396969 -0.100605 -8.259816 30.845965 -1.116600 17.531213 -22.223966 6.942128 -12.317907 12.699506 5.509014 -12.806580 12.375175 -17.493180 51.518914 -11.933040 -9.108550 -7.408450 -30.275374 5.120650 -0.924534 -43.691034 12.427312 -9.465774 -9.559071 -14.250014 0.346991 -2.734367 3.375362 0.319220 -0.497960 0.629060 0.204130 0.975951 0.064485 14.826570 31.362185 -20.706781 -10.120533 -120.258514 47.901429 -78.636794 2.927979 -1.591226 0.460640 -0.445230 -0.611330 0.081290 
0.044960 16.710960 -2.124240 -4.790560 -4.669571 -2.241997 -14.723369 13.213340 3.809948 7.256116 -3.454171 -23.799397 -11.877813 9.308175 25.713672 0.712029 4.719352 2.660611 0.510660 0.328770 0.635010 18.387369 -11.593487 3.059336 0.665986 0.349747 -7.187066 5.429507 -5.959931 20.791049 -0.586156 -3.738300 3.042732 -0.211900 -0.673240 0.263200 -4.238615 -0.203050 -8.315944 29.355845 -0.645381 18.083340 -20.281258 7.243192 -13.718425 12.423547 5.977209 -12.386722 13.741149 -18.132836 49.887535 -13.249770 -8.300750 -7.456590 -30.789744 6.700754 -1.560584 -43.808750 12.880095 -9.504150 -10.063271 -13.918337 0.384703 -2.755950 3.360627 0.319280 -0.486470 0.615720 0.185580 1.943377 -1.800744 14.581627 33.437905 -20.853703 -9.881594 -126.987815 47.607741 -88.956896 2.968420 -1.716676 0.449580 -0.459800 -0.596800 0.063590 
0.028610 16.693260 -2.117640 -4.918832 -4.443765 -1.948363 -14.784581 13.200195 3.861947 7.570119 -3.530978 -24.681460 -11.837685 9.501860 26.433130 0.713192 4.859683 2.604717 0.482730 0.289440 0.635500 18.332752 -11.533324 3.063200 0.688359 0.407108 -7.270931 6.125927 -6.150136 20.692687 -0.573730 -3.778310 3.024926 -0.227810 -0.668480 0.275710 -4.080860 -0.270798 -8.359545 27.803941 -0.093747 18.470829 -18.095099 7.582759 -15.052634 12.067879 6.563734 -11.838546 15.213076 -18.855691 47.654551 -14.707910 -7.453000 -7.259230 -31.360446 8.385700 -2.256506 -43.942164 13.302245 -9.476849 -10.763515 -13.402816 0.419785 -2.794584 3.343249 0.311150 -0.463460 0.599310 0.164050 3.155818 -3.955831 14.123263 35.696740 -21.107496 -9.794104 -133.639549 47.559246 -100.400162 2.994336 -1.844424 0.439170 -0.476410 -0.576950 0.047140 
0.012320 16.677000 -2.111350 -5.027759 -4.163946 -1.679806 -14.851361 13.192825 3.903704 7.789680 -3.618628 -25.483528 -11.665977 9.618150 27.100964 0.702438 4.976065 2.557228 0.468520 0.262970 0.646390 18.275191 -11.469031 3.062234 0.678114 0.456918 -7.331283 6.836555 -6.358634 20.638989 -0.568494 -3.830769 3.002722 -0.233920 -0.665130 0.292480 -3.912584 -0.363833 -8.390272 26.158083 0.430812 18.743642 -15.794487 7.910631 -16.257149 11.727905 7.142008 -11.248225 16.564373 -19.533748 45.605938 -16.167670 -6.654280 -7.033100 -32.127167 9.904759 -2.922911 -44.049465 13.872555 -9.471373 -11.298677 -12.969926 0.426959 -2.830797 3.329706 0.306120 -0.438630 0.588250 0.148810 4.636855 -6.021560 13.428685 37.715555 -21.361816 -9.891594 -138.791443 47.908978 -110.615068 2.996243 -1.940341 0.429670 -0.490520 -0.564130 0.029160 
-0.002900 16.663090 -2.105390 -5.160199 -3.947323 -1.423274 -14.907768 13.184675 3.930317 8.006311 -3.660287 -26.129339 -11.498884 9.691885 27.577996 0.683115 5.065455 2.519641 0.460580 0.246440 0.656290 18.229382 -11.408597 3.060313 0.656365 0.530087 -7.439436 7.536495 -6.573686 20.664278 -0.569103 -3.889995 2.977557 -0.233930 -0.660850 0.309220 -3.774365 -0.450828 -8.407021 24.804307 0.885698 18.817925 -13.801458 8.205277 -17.173630 11.410415 7.621683 -10.704118 17.588050 -20.120373 44.031521 -17.447930 -6.058920 -6.780200 -32.922866 11.046315 -3.471151 -44.107816 14.518874 -9.418127 -11.794995 -12.240996 0.375894 -2.863646 3.310996 0.304140 -0.414460 0.580580 0.137620 6.171841 -7.693199 12.673231 39.522211 -21.656757 -10.226183 -142.485861 48.709212 -119.219631 2.979892 -2.011065 0.421030 -0.499340 -0.552630 0.013140 
-0.014510 16.650470 -2.101110 -5.238142 -3.659985 -1.238997 -14.943712 13.169332 3.936492 8.034289 -3.703185 -26.539646 -11.260662 9.675601 27.883075 0.665226 5.099773 2.503318 0.461860 0.240950 0.671960 18.201957 -11.376184 3.059441 0.537254 0.594887 -7.550530 8.219751 -6.799403 20.738097 -0.576417 -3.954477 2.949717 -0.230620 -0.660060 0.325190 -3.692384 -0.482364 -8.408161 23.785311 1.196147 18.688536 -12.238991 8.334465 -17.587279 11.095121 7.967627 -10.294962 18.265743 -20.593486 42.949561 -18.307220 -5.735470 -6.523430 -33.476246 11.730709 -3.786191 -44.426561 15.081968 -9.431413 -12.117210 -11.652094 0.305859 -2.892294 3.293241 0.302110 -0.396480 0.579880 0.131300 7.496058 -8.847472 11.990620 41.042647 -21.815326 -10.679913 -144.871776 50.105540 -126.122798 2.961303 -2.062933 0.418280 -0.506250 -0.549480 0.001720 
-0.020770 16.640730 -2.098320 -5.243245 -3.381024 -1.118282 -14.957508 13.154589 3.924106 7.880992 -3.730108 -26.663126 -11.017974 9.578587 27.922907 0.643293 5.069597 2.510292 0.459840 0.240570 0.680090 18.191631 -11.376057 3.061414 0.363071 0.633242 -7.646146 8.723438 -6.968535 20.771990 -0.582477 -3.999926 2.929700 -0.224860 -0.662120 0.329290 -3.664516 -0.458955 -8.397530 23.140228 1.362682 18.415221 -11.245791 8.306739 -17.616000 10.846663 8.184045 -10.110088 18.733967 -21.006295 42.455309 -18.954660 -5.586680 -6.346640 -33.690664 12.008879 -3.868193 -44.979103 15.574353 -9.533001 -12.251947 -11.237711 0.229826 -2.914718 3.266009 0.302240 -0.387020 0.582700 0.125750 8.320329 -9.459504 11.555267 42.363981 -21.850905 -11.191105 -145.907323 51.784719 -130.541924 2.944708 -2.086315 0.413110 -0.503550 -0.546430 -0.005610 
-0.020000 16.635530 -2.095360 -5.157503 -3.125103 -0.986565 -14.957877 13.156217 3.906329 7.506464 -3.768724 -26.583240 -10.760763 9.386301 27.674972 0.632702 4.966663 2.547763 0.463810 0.241300 0.694860 18.186941 -11.395969 3.065924 0.144898 0.690261 -7.841376 9.053909 -7.091786 20.912105 -0.589339 -4.026481 2.914178 -0.226200 -0.671220 0.334000 -3.662276 -0.427828 -8.388047 22.804831 1.418198 18.113224 -10.789416 8.232172 -17.669654 10.651773 8.230857 -10.123355 18.883603 -21.348738 42.465789 -19.363570 -5.625530 -6.061890 -33.488953 12.226750 -3.840592 -45.616794 16.038731 -9.663322 -12.383423 -10.833505 0.161378 -2.922057 3.245054 0.303080 -0.388760 0.591550 0.123600 8.535964 -9.737428 11.416951 43.185647 -22.077476 -11.599839 -146.124440 53.343059 -132.851444 2.944378 -2.100647 0.417130 -0.507830 -0.553450 -0.008010 
